# xmcd CD database file
#
# Track frame offsets:
#	150
#	22625
#	40680
#
# Disc length: 840 seconds
#
# Revision: 0
# Processed by: cddbd v1.5.1PL0 Copyright (c) Steve Scherf et al.
# Submitted via: CDex 1.51
#
DISCID=11034603
DTITLE=Selfish - 自由になって
DYEAR=1992
DGENRE=J-POP
TTITLE0=自由になって
TTITLE1=愛する人へ
TTITLE2=自由になって　（origina-karaoke）
EXTD=YEAR: 1992
EXTT0=
EXTT1=
EXTT2=
PLAYORDER=
